<svg width="687" height="135" viewBox="0 0 687 135" fill="none" xmlns="http://www.w3.org/2000/svg">
<rect x="18.0171" y="117.691" width="112" height="12" rx="6" fill="url(#paint0_linear_721_187)"/>
<path d="M25.5677 103.691L0 0H24.0052L45.5176 88.1913L39.0618 84.7996H51.9877L44.0176 88.1913L61.9307 3.83516H81.2485L60.9364 103.691H25.5677ZM87.3564 103.691L65.4818 3.83516H85.7939L105.769 88.0666L98.2937 84.7996H110.651L104.315 88.0666L123.435 0H146.162L123.435 103.691H87.3564Z" fill="white"/>
<path d="M182.94 106.39C176.311 106.39 170.44 105.254 165.327 102.981C160.308 100.708 156.094 97.6781 152.685 93.8903C149.371 90.0078 146.814 85.6992 145.015 80.9644C143.31 76.135 142.458 71.2108 142.458 66.192V63.3511C142.458 58.1429 143.31 53.1714 145.015 48.4366C146.814 43.6072 149.371 39.2985 152.685 35.5107C155.999 31.7229 160.119 28.74 165.043 26.562C170.062 24.2893 175.743 23.153 182.088 23.153C190.421 23.153 197.428 25.0469 203.11 28.8347C208.887 32.5278 213.29 37.4046 216.32 43.4651C219.35 49.4309 220.866 55.9649 220.866 63.067V70.7374H151.975V57.8114H207.087L199.701 63.7772C199.701 59.1372 199.038 55.16 197.713 51.8456C196.387 48.5313 194.398 46.0219 191.747 44.3174C189.19 42.5182 185.97 41.6186 182.088 41.6186C178.111 41.6186 174.749 42.5182 172.003 44.3174C169.257 46.1166 167.173 48.7681 165.753 52.2718C164.333 55.6808 163.622 59.8947 163.622 64.9136C163.622 69.5537 164.285 73.6255 165.611 77.1293C166.937 80.5383 169.02 83.1898 171.861 85.0837C174.702 86.9776 178.395 87.9245 182.94 87.9245C187.107 87.9245 190.516 87.1196 193.167 85.5098C195.819 83.9 197.618 81.9114 198.565 79.544H219.445C218.309 84.7522 216.083 89.3923 212.769 93.4642C209.455 97.5361 205.288 100.708 200.269 102.981C195.251 105.254 189.474 106.39 182.94 106.39Z" fill="white"/>
<path d="M241.627 103.691L218.332 25.8518H241.769L267.018 103.691H241.627ZM248.729 103.691V84.7996H271.598V103.691H248.729ZM256.018 103.691L276.001 25.8518H297.876L277.706 103.691L256.018 103.691Z" fill="white"/>
<path d="M301.95 134.515V115.197H318.143C320.605 115.197 322.688 114.865 324.393 114.202C326.097 113.634 327.47 112.64 328.512 111.22C329.553 109.799 330.355 107.653 331.018 105.191L350.244 25.8518H371.835L350.102 109.941C348.587 116.002 346.457 120.831 343.71 124.43C341.059 128.028 337.461 130.585 332.915 132.1C328.465 133.71 322.783 134.515 315.87 134.515H301.95ZM326.381 101.987V84.2314H342.858V101.987H326.381ZM317.006 101.987L293.143 25.8518H316.012L342.018 101.987H317.006Z" fill="white"/>
<path d="M376.567 103.691V0H399.862V103.691H376.567ZM397.021 61.9307V42.6129H437.077V61.9307H397.021ZM397.021 19.3178V0H438.781V19.3178H397.021Z" fill="white"/>
<path d="M448.075 103.691V0H470.944V103.691H448.075ZM438.781 19.3178V0H470.944V19.3178H438.781Z" fill="white"/>
<path d="M521.288 106.39C514.47 106.39 508.41 105.348 503.107 103.265C497.804 101.087 493.306 98.1516 489.613 94.4585C486.014 90.7654 483.268 86.5515 481.374 81.8167C479.48 76.9872 478.534 71.921 478.534 66.6181V63.3511C478.534 57.9535 479.48 52.8399 481.374 48.0105C483.363 43.0863 486.204 38.7777 489.897 35.0846C493.685 31.3915 498.23 28.5033 503.533 26.42C508.836 24.242 514.754 23.153 521.288 23.153C528.012 23.153 533.978 24.242 539.186 26.42C544.489 28.5033 548.987 31.3915 552.68 35.0846C556.373 38.7777 559.214 43.0863 561.202 48.0105C563.191 52.8399 564.185 57.9535 564.185 63.3511V66.6181C564.185 71.921 563.238 76.9872 561.344 81.8167C559.451 86.5515 556.657 90.7654 552.964 94.4585C549.366 98.1516 544.915 101.087 539.612 103.265C534.309 105.348 528.201 106.39 521.288 106.39ZM521.288 87.2143C525.739 87.2143 529.432 86.2674 532.368 84.3735C535.303 82.4796 537.529 79.8281 539.044 76.4191C540.654 73.01 541.458 69.2222 541.458 65.0556C541.458 60.605 540.654 56.7225 539.044 53.4081C537.434 49.9991 535.114 47.3003 532.084 45.3117C529.148 43.3231 525.55 42.3288 521.288 42.3288C517.122 42.3288 513.523 43.3231 510.493 45.3117C507.463 47.3003 505.143 49.9991 503.533 53.4081C502.018 56.7225 501.26 60.605 501.26 65.0556C501.26 69.2222 502.018 73.01 503.533 76.4191C505.048 79.8281 507.321 82.4796 510.351 84.3735C513.381 86.2674 517.027 87.2143 521.288 87.2143Z" fill="white"/>
<path d="M596.518 103.691L612.475 28.4086H637.333L655.018 103.691H636.197L619.294 28.9767H629.379L614.18 103.691H596.518ZM592.874 103.691L592.732 84.7996H608.356L608.498 103.691H592.874ZM582.646 103.691L561.766 25.8518H584.067L606.018 103.691H582.646ZM642.02 103.691L642.162 84.7996H657.787V103.691H642.02ZM645.518 103.691L665.742 25.8518H686.622L667.872 103.691H645.518Z" fill="white"/>
<defs>
<linearGradient id="paint0_linear_721_187" x1="13.0171" y1="117.691" x2="137.46" y2="133.952" gradientUnits="userSpaceOnUse">
<stop stop-color="#FF5900"/>
<stop offset="1" stop-color="#FF1693"/>
</linearGradient>
</defs>
</svg>
